<?xml version="1.0" encoding="UTF-8" standalone="no"?>
<!-- Created with Inkscape (http://www.inkscape.org/) -->

<svg
   xmlns:dc="http://purl.org/dc/elements/1.1/"
   xmlns:cc="http://creativecommons.org/ns#"
   xmlns:rdf="http://www.w3.org/1999/02/22-rdf-syntax-ns#"
   xmlns:svg="http://www.w3.org/2000/svg"
   xmlns="http://www.w3.org/2000/svg"
   xmlns:sodipodi="http://sodipodi.sourceforge.net/DTD/sodipodi-0.dtd"
   xmlns:inkscape="http://www.inkscape.org/namespaces/inkscape"
   width="234.60165"
   height="38.000217"
   viewBox="0 0 234.60165 38.00022"
   id="svg2"
   version="1.1"
   inkscape:version="0.91 r13725"
   sodipodi:docname="logo.svg">
  <defs
     id="defs4" />
  <sodipodi:namedview
     id="base"
     pagecolor="#bababa"
     bordercolor="#666666"
     borderopacity="1.0"
     inkscape:pageopacity="0"
     inkscape:pageshadow="2"
     inkscape:zoom="2.518294"
     inkscape:cx="68.246437"
     inkscape:cy="15.342911"
     inkscape:document-units="px"
     inkscape:current-layer="layer1"
     showgrid="false"
     fit-margin-top="0"
     fit-margin-left="0"
     fit-margin-right="0"
     fit-margin-bottom="0"
     inkscape:window-width="1920"
     inkscape:window-height="1018"
     inkscape:window-x="-8"
     inkscape:window-y="-8"
     inkscape:window-maximized="1"
     units="px" />
  <metadata
     id="metadata7">
    <rdf:RDF>
      <cc:Work
         rdf:about="">
        <dc:format>image/svg+xml</dc:format>
        <dc:type
           rdf:resource="http://purl.org/dc/dcmitype/StillImage" />
        <dc:title></dc:title>
      </cc:Work>
    </rdf:RDF>
  </metadata>
  <g
     inkscape:label="Capa 1"
     inkscape:groupmode="layer"
     id="layer1"
     transform="translate(-167.7256,-713.1709)">
    <path
       id="path4217"
       style="fill:#ffffff"
       d="m 218.62224,746.24913 c -0.61405,-0.0986 -1.10426,-0.25534 -1.64261,-0.52534 -1.75626,-0.88078 -2.64047,-2.46935 -2.88346,-5.18042 -0.0265,-0.2968 -0.0435,-2.28253 -0.0435,-5.12783 l 0,-4.64347 1.34616,0 1.34613,0 0.0142,4.98041 c 0.0142,4.86982 0.0177,4.99071 0.10439,5.44372 0.10334,0.5355 0.29875,1.12085 0.48517,1.45305 0.0715,0.12739 0.27344,0.37585 0.44878,0.55208 0.25228,0.25364 0.39341,0.35594 0.67675,0.49058 0.50612,0.24051 0.72571,0.28439 1.41094,0.28191 0.6667,-0.004 0.95178,-0.0614 1.40943,-0.29193 0.72968,-0.36745 1.21519,-1.00087 1.46952,-1.91712 0.2397,-0.86351 0.2331,-0.70269 0.24818,-6.0544 l 0.0142,-4.9383 1.30626,0 1.30628,0 -0.0159,4.87513 c -0.0179,5.24861 -0.0159,5.18458 -0.24703,6.30711 -0.18113,0.87692 -0.53721,1.74918 -0.9542,2.33752 -0.27597,0.38937 -0.77971,0.87404 -1.19683,1.1516 -0.5462,0.36343 -1.09995,0.59212 -1.82285,0.75283 -0.50899,0.11324 -2.20349,0.14527 -2.77978,0.0529 z m 82.84545,0.0189 c -1.45367,-0.19842 -2.64508,-0.78862 -3.64317,-1.8047 -1.27949,-1.30253 -1.94534,-3.01755 -2.10782,-5.42908 -0.098,-1.45272 0.12421,-3.12752 0.57481,-4.33402 0.598,-1.60124 1.71779,-2.87853 3.11243,-3.55019 1.71599,-0.82644 3.91881,-0.8884 5.70693,-0.16048 0.76587,0.31178 1.36776,0.73185 2.02399,1.41258 1.01748,1.05551 1.61456,2.35927 1.90132,4.15195 0.0826,0.51669 0.0959,0.75763 0.0964,1.75705 0,1.21052 -0.0242,1.49528 -0.21305,2.43595 -0.51572,2.57059 -2.0884,4.50246 -4.25351,5.22506 -0.71062,0.23717 -1.13872,0.30377 -2.06113,0.3207 -0.46328,0.007 -0.975,-0.004 -1.13716,-0.0248 z m 1.85575,-2.39799 c 1.00345,-0.25638 1.82859,-0.97121 2.35632,-2.04133 0.27462,-0.55684 0.4115,-0.96833 0.54677,-1.6434 0.32783,-1.63614 0.19352,-3.52398 -0.34612,-4.86403 -0.21489,-0.53368 -0.49911,-0.98394 -0.86841,-1.37573 -0.70804,-0.75115 -1.54035,-1.10977 -2.5756,-1.10977 -2.53164,0 -4.08728,2.28745 -3.96701,5.8333 0.0651,1.92133 0.55303,3.30978 1.50314,4.27768 0.54151,0.55166 1.20468,0.89272 1.95847,1.0072 0.35957,0.0547 1.0017,0.0159 1.39244,-0.0839 z m -104.64391,-5.45368 0,-7.64435 1.34777,0 1.34775,0 0,3.07458 0,3.07461 3.09567,0 3.09561,0 0,-3.07461 0,-3.07458 1.34779,0 1.34775,0 0,7.64435 0,7.64437 -1.34775,0 -1.34779,0 0,-3.39047 0,-3.39046 -3.09561,0 -3.09567,0 0,3.39046 0,3.39047 -1.34775,0 -1.34777,0 0,-7.64437 z m 30.74589,0 0,-7.64435 1.48465,0 1.48464,0 1.39436,3.7589 c 0.90872,2.44972 1.41591,3.76317 1.45618,3.77111 0.0456,0.009 0.17952,-0.31454 0.51385,-1.24245 0.24861,-0.69008 0.86135,-2.38711 1.36157,-3.7712 l 0.90956,-2.51655 1.48878,0 1.48877,0 0,7.64436 0,7.64437 -1.26353,0 -1.26353,0 0,-5.61218 c 0,-3.36203 -0.0159,-5.58805 -0.0388,-5.55201 -0.0209,0.0331 -0.6224,1.5918 -1.33659,3.46377 l -1.29849,3.40356 -0.61436,5.6e-4 -0.61433,5.5e-4 -1.31932,-3.49746 c -0.72561,-1.92359 -1.33339,-3.50618 -1.35066,-3.51685 -0.0177,-0.0106 -0.0207,2.52981 -0.007,5.64547 l 0.0237,5.66485 -1.24901,0 -1.249,0 0,-7.64436 z m 14.86753,5.7e-4 0,-7.64989 3.12723,0.0159 c 2.99527,0.0159 3.14769,0.0207 3.61162,0.1081 1.81842,0.34364 2.88242,1.04528 3.31071,2.18322 0.30835,0.81919 0.34123,1.81365 0.0849,2.56724 -0.34844,1.02423 -1.01422,1.68911 -2.0808,2.07796 -0.31014,0.11306 -0.41467,0.19332 -0.29694,0.22793 0.0308,0.009 0.23621,0.0582 0.45627,0.10935 0.78449,0.18205 1.42522,0.50815 1.91776,0.97601 0.73263,0.69593 1.02162,1.49815 0.97627,2.7098 -0.0885,2.36631 -1.55114,3.76373 -4.41518,4.21853 -0.369,0.0586 -0.9257,0.0722 -3.56455,0.087 l -3.12724,0.0177 0,-7.64991 z m 5.98072,5.47668 c 1.36078,-0.20633 2.15731,-0.80459 2.42145,-1.81864 0.083,-0.31857 0.0823,-1.0202 0,-1.34072 -0.18388,-0.70584 -0.74383,-1.21675 -1.63503,-1.49177 -0.53878,-0.16632 -1.14677,-0.21549 -2.66176,-0.21549 l -1.40878,0 0,2.46389 0,2.4639 1.44252,-5.7e-4 c 1.0414,0 1.55379,-0.0177 1.84265,-0.0609 z m -0.0464,-6.92448 c 0.47797,-0.12421 0.83885,-0.30353 1.11108,-0.55232 0.8394,-0.76717 0.82344,-2.41407 -0.0294,-3.02651 -0.60882,-0.43723 -1.26586,-0.55268 -3.15182,-0.55387 l -1.16878,-6.3e-4 0,2.13033 0,2.13031 1.44253,-0.0177 c 1.3121,-0.0159 1.47453,-0.026 1.79636,-0.1097 z m 7.96443,1.44718 0,-7.64437 4.59081,0 4.59083,0 0,1.13718 0,1.13718 -3.24306,0 -3.24306,0 0,1.95847 0,1.95847 2.75871,0 2.75871,0 0,1.13718 0,1.13718 -2.75871,0 -2.75871,0 0,2.27434 0,2.27437 3.36943,0 3.36939,0 0,1.13717 0,1.13717 -4.71718,0 -4.71716,0 0,-7.64434 z m 12.50893,-0.004 0,-7.64675 3.23255,0.0177 c 2.81625,0.0141 3.27864,0.026 3.59053,0.0878 1.68658,0.33448 2.79245,0.99428 3.36027,2.00486 0.63019,1.12151 0.73695,3.00816 0.24423,4.31391 -0.31189,0.82649 -0.92002,1.52214 -1.78523,2.04216 -0.18451,0.11094 -0.45613,0.24562 -0.60357,0.29936 -0.14739,0.0536 -0.28372,0.11129 -0.30283,0.1281 -0.0191,0.0159 0.75975,1.42099 1.73086,3.12069 0.97112,1.6997 1.7882,3.133 1.81575,3.18512 l 0.0501,0.0948 -1.51019,0 -1.51018,0 -1.65976,-3.01206 -1.65978,-3.01207 -1.15912,0.0106 -1.1591,0.0106 -0.0106,3.00086 -0.0106,3.00088 -1.32643,0 -1.32645,0 0,-7.64671 z m 5.50335,-0.52701 c 0.49152,-0.0548 1.04108,-0.20923 1.38176,-0.38827 0.90776,-0.47703 1.36596,-1.6021 1.13861,-2.79553 -0.19406,-1.01849 -0.90197,-1.56413 -2.25763,-1.74009 -0.17146,-0.0223 -0.94204,-0.041 -1.71225,-0.0418 l -1.40043,-0.001 0,2.47793 c 0,1.36284 0.0124,2.49055 0.028,2.506 0.046,0.046 2.38408,0.0318 2.82184,-0.0177 z m 11.17526,1.66658 0,-6.50717 -2.21119,0 -2.21117,0 0,-1.13718 0,-1.13718 5.74908,0 5.74902,0 0,1.13718 0,1.13718 -2.19008,0 -2.19012,0 0,6.50717 0,6.50716 -1.34778,0 -1.34776,0 0,-6.50716 z"
       inkscape:connector-curvature="0" />
    <path
       id="path4164"
       style="fill:#ffffff"
       d="m 321.18704,738.66689 0,-7.64435 1.48555,0 1.48556,0 1.39476,3.75901 c 0.89207,2.40418 1.41669,3.76341 1.4556,3.77123 0.0451,0.009 0.41217,-0.96056 1.42286,-3.759 l 1.36201,-3.77124 1.488,0 1.48801,0 0,7.64435 0,7.64435 -1.26352,0 -1.26354,0 -0.004,-5.61217 c -0.004,-4.6347 -0.0106,-5.59383 -0.0566,-5.50688 -0.0303,0.058 -0.63116,1.61671 -1.33556,3.46403 l -1.28071,3.35876 -0.61308,0 -0.61307,0 -1.32434,-3.51038 -1.32436,-3.51035 -0.0106,5.65836 -0.0106,5.65836 -1.24232,0 -1.2423,0 0,-7.64434 z m 20.11855,7.59988 c -2.89706,-0.33669 -4.95649,-2.31829 -5.64412,-5.43082 -0.18743,-0.84829 -0.25258,-1.49585 -0.25219,-2.506 0,-1.0143 0.0672,-1.68422 0.24966,-2.4996 0.74838,-3.34642 3.16549,-5.34938 6.46168,-5.35453 2.95227,-0.005 5.20623,1.57348 6.19105,4.33459 0.33255,0.93237 0.49921,1.92652 0.53354,3.1826 0.0618,2.25735 -0.39252,4.09418 -1.38049,5.58236 -0.34259,0.51606 -1.18769,1.36531 -1.68098,1.68919 -0.86278,0.56652 -1.74204,0.87646 -2.84464,1.00278 -0.42915,0.0492 -1.20799,0.0488 -1.63351,-5.7e-4 z m 1.31249,-2.33566 c 1.16722,-0.11183 2.20885,-0.93406 2.82734,-2.23175 0.84102,-1.76459 0.88164,-4.677 0.0908,-6.50068 -0.71832,-1.65621 -2.14394,-2.54479 -3.78859,-2.36139 -1.85946,0.20733 -3.07693,1.60474 -3.48276,3.99748 -0.0927,0.54665 -0.12704,1.79633 -0.0665,2.41541 0.24158,2.46664 1.26861,4.06754 2.93404,4.57338 0.30647,0.0931 0.87526,0.16933 1.09252,0.14651 0.0695,-0.007 0.24647,-0.0249 0.39326,-0.0389 z m 53.19757,2.31627 c -1.12556,-0.15358 -2.27924,-0.57036 -3.176,-1.14716 -0.28701,-0.18463 -0.80034,-0.57775 -1.13353,-0.86811 l -0.16491,-0.14367 0.70844,-0.83658 c 0.38965,-0.46011 0.74172,-0.8723 0.78242,-0.91597 0.072,-0.0771 0.0826,-0.0724 0.38298,0.17305 0.8917,0.72845 2.01056,1.25813 2.96245,1.40247 0.71055,0.10776 1.58505,0.0387 2.13683,-0.16844 0.31664,-0.1189 0.71259,-0.38606 0.87359,-0.58933 0.53341,-0.67347 0.52503,-1.70879 -0.0189,-2.31064 -0.24977,-0.2765 -1.01212,-0.71588 -1.7599,-1.01434 -0.41265,-0.16472 -2.28451,-0.98053 -2.71827,-1.18475 -0.8243,-0.38803 -1.79343,-1.22496 -2.14385,-1.85137 -0.58896,-1.05275 -0.66746,-2.47237 -0.19858,-3.58986 0.36978,-0.88122 1.2477,-1.75322 2.21225,-2.19726 0.37403,-0.17216 0.89202,-0.33143 1.40604,-0.43223 0.52874,-0.10368 1.82356,-0.1051 2.37075,-0.004 0.76105,0.14262 1.59644,0.45645 2.25925,0.84867 0.35938,0.21268 0.93786,0.65086 1.13573,0.86031 l 0.12191,0.12916 -0.66536,0.82458 c -0.36596,0.45351 -0.68156,0.83458 -0.70133,0.84679 -0.0198,0.0124 -0.11642,-0.0425 -0.21471,-0.12155 -0.95307,-0.76629 -1.99334,-1.14116 -3.14806,-1.13444 -1.40752,0.007 -2.29067,0.62853 -2.34984,1.65062 -0.0106,0.18663 0.004,0.42344 0.0324,0.54475 0.0754,0.31424 0.32875,0.67875 0.61359,0.88271 0.30688,0.21974 1.01084,0.58057 1.55691,0.79799 0.79804,0.31776 2.5692,1.07146 2.85307,1.21411 0.38584,0.19391 0.678,0.38468 1.06166,0.69333 0.86096,0.6926 1.30042,1.54304 1.41272,2.73388 0.12881,1.3664 -0.31222,2.55658 -1.29847,3.50369 -0.40429,0.38823 -0.69026,0.59097 -1.17712,0.83435 -1.04391,0.52189 -2.6679,0.75156 -4.01445,0.56777 z m -43.92485,-7.87592 0,-7.64491 1.39641,0.0106 1.39641,0.0106 2.27105,4.10647 c 1.69636,3.06727 2.49917,4.56746 3.17239,5.92807 0.49571,1.00186 0.92069,1.82156 0.94442,1.82156 0.058,0 0.0559,-0.0614 -0.0409,-1.12354 -0.22682,-2.49061 -0.22188,-2.35424 -0.24133,-6.65769 l -0.0186,-4.09595 1.28799,0 1.288,0 0,7.64437 0,7.64436 -1.40043,-6.3e-4 -1.40039,-6.2e-4 -2.42861,-4.41081 c -1.81445,-3.29538 -2.61327,-4.79142 -3.15882,-5.916 -0.43681,-0.90039 -0.75372,-1.50541 -0.7887,-1.50569 -0.0465,-5.7e-4 -0.0531,0.0536 -0.0322,0.26272 0.28931,2.91466 0.32116,3.69226 0.32185,7.85493 l 0,3.7169 -1.28459,0 -1.2846,0 0,-7.64493 z m 18.40542,1.13776 0,-6.5072 -2.21118,0 -2.21115,0 0,-1.13718 0,-1.13716 5.7701,0 5.77011,0 0,1.1368 0,1.13681 -2.20064,0.0106 -2.20065,0.0106 -0.0106,6.49665 -0.0106,6.49664 -1.34763,0 -1.34763,0 0,-6.50717 z m 9.64494,-1.1372 0,-7.64434 4.56978,0 4.56975,0 0,1.13691 0,1.13691 -3.23253,0.0106 -3.23253,0.0106 0,1.95847 0,1.95847 2.74818,0.0106 2.74818,0.0106 0,1.13688 0,1.13686 -2.75904,0 -2.7591,0 0.0106,2.26383 0.0106,2.26383 3.3589,0.0106 3.3589,0.0106 0,1.11588 0,1.11585 -4.69612,0 -4.69613,0 0,-7.64436 z"
       inkscape:connector-curvature="0" />
    <path
       style="fill:#ffffff"
       d="m 168.25202,751.1461 c -0.27282,-0.0592 -0.46813,-0.27353 -0.51218,-0.56203 -0.0124,-0.0808 -0.0164,-3.75286 -0.0132,-11.94479 l 0.004,-11.82811 0.0371,-0.0981 c 0.0736,-0.19472 0.23143,-0.35019 0.4227,-0.4164 0.0774,-0.0268 0.31005,-0.0294 3.11498,-0.0338 2.14739,-0.004 3.06322,3.6e-4 3.1407,0.0138 0.22213,0.0379 0.41168,0.18214 0.50715,0.38587 l 0.0458,0.0977 0.004,3.57849 c 0.004,3.38123 0.006,3.57931 0.034,3.59355 0.0163,0.008 0.91604,0.29562 1.99951,0.63852 l 1.96994,0.62347 4.6701,-1.44562 c 2.56855,-0.79509 4.74505,-1.46885 4.83665,-1.49724 0.15952,-0.0494 0.16634,-0.0535 0.16133,-0.0967 -0.004,-0.0338 -0.0137,-0.044 -0.0392,-0.0408 -0.0736,0.009 -5.77693,0.90502 -5.82083,0.91421 l -0.0469,0.01 0.004,-3.13884 0.004,-3.13886 0.0457,-0.0977 c 0.0955,-0.20372 0.28501,-0.34794 0.50715,-0.38588 0.0774,-0.0133 0.9933,-0.0173 3.14069,-0.0138 2.80494,0.004 3.03757,0.007 3.11499,0.0338 0.19127,0.0662 0.34909,0.22167 0.4227,0.41641 l 0.0371,0.0981 0,11.90453 0,11.90452 -0.0371,0.0981 c -0.0736,0.19472 -0.23143,0.35019 -0.4227,0.4164 -0.0774,0.0268 -0.31005,0.0294 -3.11499,0.0338 -2.14739,0.004 -3.06322,-3.6e-4 -3.14069,-0.0138 -0.22214,-0.0379 -0.41168,-0.18214 -0.50715,-0.38587 l -0.0457,-0.0977 -0.004,-6.32163 c -0.003,-3.4769 -0.01,-6.32163 -0.0159,-6.32163 -0.006,0 -0.85299,0.26044 -1.88143,0.57874 l -1.86989,0.57874 -4.89863,-1.57071 c -2.69423,-0.86389 -4.91391,-1.57329 -4.93258,-1.57644 -0.0277,-0.004 -0.034,0.004 -0.034,0.0449 0,0.0507 8.9e-4,0.051 2.93378,1.44316 l 2.93377,1.39254 -0.004,5.87617 -0.004,5.87616 -0.0457,0.0977 c -0.0935,0.19956 -0.2812,0.34498 -0.49652,0.38469 -0.0707,0.013 -0.99496,0.0182 -3.09925,0.0173 -2.47678,-8.9e-4 -3.01721,-0.005 -3.10606,-0.0247 z"
       id="path4162"
       inkscape:connector-curvature="0" />
    <path
       style="fill:#ffffff"
       d="m 178.76968,726.27967 c -1.34342,-0.70238 -2.30536,-1.81149 -2.60758,-3.00652 -0.0906,-0.35809 -0.10967,-0.53046 -0.10862,-0.97925 8.9e-4,-0.3406 0.007,-0.44385 0.0387,-0.62833 0.10753,-0.62881 0.31092,-1.20791 0.68294,-1.94447 0.21521,-0.42609 0.44124,-0.81947 0.94184,-1.63906 0.53572,-0.87708 0.74056,-1.2354 0.95119,-1.66398 0.43688,-0.88885 0.56799,-1.44252 0.51875,-2.1907 -0.0296,-0.44894 -0.0813,-0.65473 -0.2301,-0.91566 -0.0422,-0.074 -0.074,-0.13713 -0.0708,-0.14041 0.0145,-0.0145 0.36955,0.37568 0.46696,0.51322 0.12947,0.1828 0.2883,0.50085 0.35873,0.71837 0.14295,0.44145 0.17488,0.83244 0.13615,1.66705 -0.037,0.79802 -0.10137,1.30992 -0.27924,2.22185 -0.10125,0.51908 -0.12818,0.71319 -0.12818,0.92405 0,0.3975 0.12426,0.78615 0.34616,1.08267 l 0.0699,0.0934 0.01,-0.37361 c 0.005,-0.21084 0.0195,-0.4106 0.0317,-0.45852 0.034,-0.13372 0.1437,-0.34693 0.23767,-0.462 0.0746,-0.0914 0.30644,-0.29945 0.3193,-0.28659 0.003,0.003 -0.0105,0.0926 -0.0289,0.20017 -0.11569,0.67672 -0.0431,0.95986 0.51479,2.00625 0.37438,0.70227 0.4839,0.93807 0.59388,1.27859 0.10602,0.32825 0.1218,0.43441 0.12077,0.81286 -8.9e-4,0.2859 -0.007,0.36786 -0.0392,0.51796 -0.10276,0.47898 -0.31755,0.92152 -0.643,1.3249 -0.26139,0.32398 -0.73435,0.73074 -1.16799,1.00446 -0.20042,0.12652 -0.77676,0.42202 -0.82181,0.42135 -0.0151,-2e-4 -0.11136,-0.0443 -0.2141,-0.098 z"
       id="path4158"
       inkscape:connector-curvature="0" />
  </g>
</svg>
