<?xml version="1.0" encoding="UTF-8" standalone="no"?>
<!-- Created with Inkscape (http://www.inkscape.org/) -->

<svg
   xmlns:dc="http://purl.org/dc/elements/1.1/"
   xmlns:cc="http://creativecommons.org/ns#"
   xmlns:rdf="http://www.w3.org/1999/02/22-rdf-syntax-ns#"
   xmlns:svg="http://www.w3.org/2000/svg"
   xmlns="http://www.w3.org/2000/svg"
   xmlns:sodipodi="http://sodipodi.sourceforge.net/DTD/sodipodi-0.dtd"
   xmlns:inkscape="http://www.inkscape.org/namespaces/inkscape"
   width="47.247681mm"
   height="64.335899mm"
   viewBox="0 0 167.41304 227.96185"
   id="svg2"
   version="1.1"
   inkscape:version="0.91 r"
   sodipodi:docname="logo_vertical.svg">
  <defs
     id="defs4" />
  <sodipodi:namedview
     id="base"
     pagecolor="#d3d3d3"
     bordercolor="#666666"
     borderopacity="1.0"
     inkscape:pageopacity="0"
     inkscape:pageshadow="2"
     inkscape:zoom="1.3838462"
     inkscape:cx="19.26921"
     inkscape:cy="101.37226"
     inkscape:document-units="px"
     inkscape:current-layer="layer1"
     showgrid="false"
     fit-margin-top="0"
     fit-margin-left="0"
     fit-margin-right="-0.5"
     fit-margin-bottom="2.7755576e-17"
     inkscape:window-width="1366"
     inkscape:window-height="712"
     inkscape:window-x="0"
     inkscape:window-y="0"
     inkscape:window-maximized="1" />
  <metadata
     id="metadata7">
    <rdf:RDF>
      <cc:Work
         rdf:about="">
        <dc:format>image/svg+xml</dc:format>
        <dc:type
           rdf:resource="http://purl.org/dc/dcmitype/StillImage" />
        <dc:title></dc:title>
      </cc:Work>
    </rdf:RDF>
  </metadata>
  <g
     inkscape:label="Capa 1"
     inkscape:groupmode="layer"
     id="layer1"
     transform="translate(-287.45489,-412.20015)">
    <g
       transform="matrix(0.63269767,0,0,-0.63272257,287.04561,640.58959)"
       inkscape:label="ink_ext_XXXXXX"
       id="g4144">
      <g
         transform="scale(0.1,0.1)"
         id="g4146">
        <path
           inkscape:connector-curvature="0"
           id="path4148"
           style="fill:#231f20;fill-opacity:1;fill-rule:nonzero;stroke:none"
           d="m 674.004,2782.06 c 0,22.07 17.887,39.96 39.953,39.96 l 357.013,0 c 22.07,0 39.95,-17.89 39.95,-39.96 l 0,-419.74 239.51,-75.95 580.03,179.51 0.17,5.66 -354.59,-55.7 0,366.22 c 0,22.07 17.88,39.96 39.95,39.96 l 357.01,0 c 22.07,0 39.95,-17.89 39.95,-39.96 l 0,-1414.07 c 0,-22.06 -17.88,-39.95 -39.95,-39.95 l -357.01,0 c -22.07,0 -39.95,17.89 -39.95,39.95 l 0,748.56 -225.51,-69.8 -591.913,189.81 -0.09,-6.59 352.393,-167.26 0,-694.72 c 0,-22.06 -17.88,-39.95 -39.95,-39.95 l -357.013,0 c -22.066,0 -39.953,17.89 -39.953,39.95 l 0,1414.07" />
        <path
           inkscape:connector-curvature="0"
           id="path4150"
           style="fill:#ffffff;fill-opacity:1;fill-rule:evenodd;stroke:none"
           d="m 868.68,6.75781 c 48.937,0.5625 88.16,17.82809 117.664,51.79299 29.506,33.9648 44.646,81.2542 45.426,141.8632 -0.78,60.227 -15.92,106.875 -45.426,139.957 -29.504,33.082 -68.727,49.848 -117.664,50.305 -49.203,-0.457 -88.59,-17.223 -118.157,-50.305 -29.562,-33.082 -44.73,-79.73 -45.492,-139.957 0.762,-60.609 15.93,-107.8984 45.492,-141.8632 C 780.09,24.5859 819.477,7.32031 868.68,6.75781 Z m 0,57.13279 c -29.543,0.4844 -52.891,12.8282 -70.043,37.0314 -17.153,24.207 -25.91,57.371 -26.278,99.492 0.368,41.734 9.125,74.262 26.278,97.582 17.152,23.32 40.5,35.172 70.043,35.551 29.277,-0.379 52.461,-12.231 69.55,-35.551 17.094,-23.32 25.829,-55.848 26.208,-97.582 -0.379,-42.121 -9.114,-75.285 -26.208,-99.492 C 921.141,76.7188 897.957,64.375 868.68,63.8906 Z m 236.09,-50.3359 62.23,0 0,161.9453 c -0.14,20.875 -1.13,42.027 -2.97,63.461 -1.84,21.43 -3.68,42.008 -5.52,61.734 l 2.27,0 38.52,-78.722 115.03,-208.4183 67.33,0 0,370.3243 -62.23,0 0,-160.774 c 0.14,-21.011 1.13,-42.507 2.97,-64.484 1.84,-21.976 3.68,-42.605 5.51,-61.8827 l -2.26,0 -38.52,78.7227 -115.03,208.418 -67.33,0 0,-370.3243 z m 444.93,0 65.62,0 0,314.8943 106.48,0 0,55.43 -279.16,0 0,-55.43 107.06,0 0,-314.8943 z m 232.77,0 228.19,0 0,55.4336 -162.56,0 0,109.3747 133.1,0 0,55.434 -133.1,0 0,94.652 156.89,0 0,55.43 -222.52,0 0,-370.3243 z m 276.49,47.5039 c 17.78,-17.3555 38.11,-30.7227 60.99,-40.0898 22.87,-9.3672 46.9,-14.10552 72.07,-14.21099 41.98,0.82422 74.57,11.62109 97.77,32.39449 23.19,20.7735 34.96,46.5782 35.3,77.4217 -0.35,26.555 -7.29,47.656 -20.79,63.305 -13.51,15.652 -31.48,27.973 -53.91,36.965 l -49.87,20.961 c -15.84,5.82 -29.49,12.453 -40.95,19.898 -11.45,7.449 -17.44,18.188 -17.99,32.223 0.21,13.711 5.46,24.379 15.73,32.008 10.27,7.621 24.3,11.492 42.08,11.613 15.79,-0.086 30.26,-2.895 43.42,-8.43 13.16,-5.535 25.5,-13.301 37.02,-23.297 l 33.94,41.907 c -14.66,14.578 -31.88,26.007 -51.64,34.293 -19.77,8.285 -40.69,12.503 -62.74,12.656 -36.65,-0.656 -66.31,-10.653 -88.99,-29.988 -22.67,-19.336 -34.35,-44.055 -35.02,-74.165 0.82,-26.941 8.67,-48.257 23.56,-63.941 14.88,-15.687 31.93,-27.23 51.14,-34.629 l 50.44,-22.094 c 17.28,-6.55 31.17,-13.558 41.66,-21.031 10.48,-7.469 15.86,-18.59 16.15,-33.351 -0.11,-14.6254 -5.7,-26.1684 -16.79,-34.6293 -11.09,-8.461 -27.03,-12.7813 -47.82,-12.9571 -17.5,0.1875 -34.63,4.0586 -51.41,11.6094 -16.78,7.5547 -31.92,17.6563 -45.43,30.309 L 2058.96,61.0586 Z M 361.867,6.75781 l 59.965,0 -0.246,275.71119 64.656,-171.274 30.028,0 64.148,167.848 0.164,-272.28519 61.668,0 0,370.32419 -72.434,0 -66.011,-182.703 -2.266,0 -67.809,182.703 -71.863,0 0,-370.32419" />
        <path
           inkscape:connector-curvature="0"
           id="path4152"
           style="fill:#ffffff;fill-opacity:1;fill-rule:evenodd;stroke:none"
           d="m 6.46875,540.07 65.63285,0 0,164.243 149.5934,0 0,-164.243 65.633,0 0,370.325 -65.633,0 0,-148.95 -149.5934,0 0,148.95 -65.63285,0 0,-370.325 z M 378.543,702.543 c 0.492,-60.32 13.227,-103.75 38.203,-130.293 24.977,-26.543 59.242,-39.535 102.793,-38.977 43.254,-0.558 77.258,12.434 102.012,38.977 24.754,26.543 37.367,69.973 37.847,130.293 l 0,207.852 -63.363,0 0,-212.95 c -0.355,-39.644 -7.437,-67.539 -21.25,-83.679 -13.812,-16.141 -32.226,-23.93 -55.246,-23.364 -22.726,-0.566 -40.883,7.223 -54.473,23.364 -13.586,16.14 -20.55,44.035 -20.894,83.679 l 0,212.95 -65.629,0 0,-207.852 z m 731.537,-162.473 127.96,0 c 41.62,-0.109 75.51,8.731 101.67,26.524 26.15,17.793 39.64,45.187 40.47,82.179 -0.14,24.911 -7.36,44.641 -21.65,59.2 -14.29,14.554 -34.81,24.082 -61.55,28.582 l 0,2.261 c 21.7,6.106 37.71,16.532 48.02,31.286 10.32,14.75 15.43,31.136 15.35,49.152 -0.75,33.527 -13.25,57.211 -37.49,71.055 -24.25,13.839 -55.73,20.535 -94.45,20.086 l -118.33,0 0,-370.325 z m 65.63,216.844 0,102.582 48.17,0 c 24.07,0.117 42.09,-3.664 54.05,-11.336 11.96,-7.676 17.94,-19.953 17.93,-36.84 0.18,-17.39 -5.58,-30.781 -17.29,-40.168 -11.71,-9.386 -30.51,-14.132 -56.39,-14.238 l -46.47,0 z m 0,-165.945 0,119.008 55.54,0 c 27.56,0.046 48.5,-4.582 62.82,-13.883 14.32,-9.305 21.52,-23.567 21.61,-42.789 -0.12,-20.942 -7.39,-36.575 -21.82,-46.895 -14.43,-10.316 -35.3,-15.465 -62.62,-15.441 l -55.53,0 z m 271.14,-50.899 228.18,0 0,55.43 -162.55,0 0,109.379 133.1,0 0,55.434 -133.1,0 0,94.652 156.89,0 0,55.43 -222.52,0 0,-370.325 z m 367.6,317.727 52.14,0 c 25.57,0.269 44.98,-3.957 58.23,-12.684 13.25,-8.722 19.9,-23.574 19.97,-44.554 -0.07,-20.993 -6.72,-36.809 -19.97,-47.461 -13.25,-10.649 -32.66,-15.985 -58.23,-16.008 l -52.14,0 0,120.707 z m 209.57,-317.727 -88.29,154.602 c 22.65,7.551 40.59,20.023 53.83,37.418 13.24,17.394 20,40.219 20.3,68.469 -0.87,40.754 -13.98,69.394 -39.34,85.925 -25.35,16.532 -57.73,24.504 -97.13,23.911 l -124.57,0 0,-370.325 65.63,0 0,144.985 56.1,0 79.9,-144.985 73.57,0 z m 128.67,0 65.63,0 0,314.895 106.48,0 0,55.43 -279.16,0 0,-55.43 107.05,0 0,-314.895 z m 364.71,-6.797 c 48.94,0.563 88.16,17.825 117.66,51.79 29.51,33.968 44.65,81.257 45.43,141.867 -0.78,60.222 -15.92,106.875 -45.43,139.957 -29.5,33.078 -68.72,49.847 -117.66,50.304 -49.2,-0.457 -88.59,-17.226 -118.16,-50.304 -29.56,-33.082 -44.72,-79.735 -45.49,-139.957 0.77,-60.61 15.93,-107.899 45.49,-141.867 29.57,-33.965 68.96,-51.227 118.16,-51.79 z m 0,57.129 c -29.54,0.485 -52.89,12.832 -70.04,37.036 -17.15,24.207 -25.91,57.371 -26.28,99.492 0.37,41.734 9.13,74.261 26.28,97.582 17.15,23.32 40.5,35.172 70.04,35.547 29.28,-0.375 52.46,-12.227 69.55,-35.547 17.09,-23.321 25.83,-55.848 26.21,-97.582 -0.38,-42.121 -9.12,-75.285 -26.21,-99.492 -17.09,-24.204 -40.27,-36.551 -69.55,-37.036 z m -1766.361,-50.757 59.965,0 -0.242,275.71 64.652,-171.273 30.027,0 64.149,167.848 0.164,-272.285 61.666,0 0,370.328 -72.428,0 -66.015,-182.707 -2.266,0 -67.809,182.707 -71.863,0 0,-370.328" />
        <path
           inkscape:connector-curvature="0"
           id="path4154"
           style="fill:#ffffff;fill-opacity:1;fill-rule:nonzero;stroke:none"
           d="m 1341.64,3609.63 c 30.31,-25.79 60.52,-68.33 60.52,-135.31 0,-134.01 -25.53,-185.07 -25.53,-229.74 0,-44.67 25.53,-70.2 25.53,-70.2 0,0 0,17.02 0,35.1 0,39.36 36.17,60.63 36.17,60.63 0,0 -5.32,-22.34 -5.32,-42.55 0,-59.56 77.65,-136.14 77.65,-213.79 0,-138.27 -161.68,-198.89 -161.68,-198.89 0,0 -176.57,74.45 -176.57,244.63 0,170.18 189.33,325.47 189.33,463.74 0,62.76 -11.01,68.24 -20.1,86.38" />
      </g>
    </g>
  </g>
</svg>
