<?xml version="1.0" encoding="UTF-8" standalone="no"?>
<!-- Created with Inkscape (http://www.inkscape.org/) -->

<svg
   xmlns:dc="http://purl.org/dc/elements/1.1/"
   xmlns:cc="http://creativecommons.org/ns#"
   xmlns:rdf="http://www.w3.org/1999/02/22-rdf-syntax-ns#"
   xmlns:svg="http://www.w3.org/2000/svg"
   xmlns="http://www.w3.org/2000/svg"
   xmlns:sodipodi="http://sodipodi.sourceforge.net/DTD/sodipodi-0.dtd"
   xmlns:inkscape="http://www.inkscape.org/namespaces/inkscape"
   width="41.391701mm"
   height="16.111109mm"
   viewBox="0 0 146.66352 57.086608"
   id="svg2"
   version="1.1"
   inkscape:version="0.91 r"
   sodipodi:docname="logo_color.svg">
  <defs
     id="defs4" />
  <sodipodi:namedview
     id="base"
     pagecolor="#d3d3d3"
     bordercolor="#666666"
     borderopacity="1.0"
     inkscape:pageopacity="0"
     inkscape:pageshadow="2"
     inkscape:zoom="1.2691299"
     inkscape:cx="166.70513"
     inkscape:cy="20.093308"
     inkscape:document-units="px"
     inkscape:current-layer="layer1"
     showgrid="false"
     fit-margin-top="1"
     fit-margin-left="2"
     fit-margin-right="2"
     fit-margin-bottom="1"
     inkscape:window-width="1366"
     inkscape:window-height="712"
     inkscape:window-x="0"
     inkscape:window-y="0"
     inkscape:window-maximized="1"
     showguides="true"
     inkscape:guide-bbox="true" />
  <metadata
     id="metadata7">
    <rdf:RDF>
      <cc:Work
         rdf:about="">
        <dc:format>image/svg+xml</dc:format>
        <dc:type
           rdf:resource="http://purl.org/dc/dcmitype/StillImage" />
        <dc:title></dc:title>
      </cc:Work>
    </rdf:RDF>
  </metadata>
  <g
     inkscape:label="Capa 1"
     inkscape:groupmode="layer"
     id="layer1"
     transform="translate(-322.6029,-503.0182)">
    <path
       inkscape:connector-curvature="0"
       id="path4148"
       style="fill:#231f20;fill-opacity:1;fill-rule:nonzero;stroke:none"
       d="m 329.68951,524.69732 c 0,-0.48365 0.39197,-0.87571 0.87552,-0.87571 l 7.82347,0 c 0.48363,0 0.87545,0.39206 0.87545,0.87571 l 0,9.19841 5.24855,1.66441 12.71059,-3.93388 0.004,-0.12404 -7.77037,1.22064 0,-8.02554 c 0,-0.48365 0.39181,-0.87571 0.87545,-0.87571 l 7.8234,0 c 0.48364,0 0.87545,0.39206 0.87545,0.87571 l 0,30.9887 c 0,0.48343 -0.39181,0.87548 -0.87545,0.87548 l -7.8234,0 c -0.48364,0 -0.87545,-0.39205 -0.87545,-0.87548 l 0,-16.40435 -4.94176,1.52963 -12.97099,-4.1596 -0.002,0.14442 7.72223,3.66543 0,15.22447 c 0,0.48343 -0.39182,0.87548 -0.87545,0.87548 l -7.82347,0 c -0.48355,0 -0.87552,-0.39205 -0.87552,-0.87548 l 0,-30.9887" />
    <path
       inkscape:connector-curvature="0"
       id="path4150"
       style="fill:#009fe8;fill-opacity:1;fill-rule:evenodd;stroke:none"
       d="m 397.49545,556.41759 c 1.74713,-0.0201 3.14745,-0.63652 4.20079,-1.84917 1.05341,-1.21264 1.59392,-2.90101 1.62177,-5.06493 -0.0279,-2.15028 -0.56836,-3.81574 -1.62177,-4.99687 -1.05334,-1.18112 -2.45366,-1.77972 -4.20079,-1.79603 -1.75662,0.0163 -3.1628,0.61491 -4.21838,1.79603 -1.05541,1.18113 -1.59693,2.84659 -1.62413,4.99687 0.0272,2.16392 0.56872,3.85229 1.62413,5.06493 1.05558,1.21265 2.46176,1.82908 4.21838,1.84917 z m 0,-2.03981 c -1.05473,-0.0173 -1.88829,-0.458 -2.50064,-1.32213 -0.61239,-0.86426 -0.92503,-2.04832 -0.93816,-3.55216 0.0131,-1.49002 0.32577,-2.65136 0.93816,-3.48396 0.61235,-0.83258 1.44591,-1.25573 2.50064,-1.26927 1.04523,0.0135 1.87294,0.43669 2.48304,1.26927 0.61028,0.8326 0.92214,1.99394 0.93567,3.48396 -0.0135,1.50384 -0.32539,2.6879 -0.93567,3.55216 -0.6101,0.86413 -1.43781,1.30484 -2.48304,1.32213 z m 8.42877,1.79714 2.22171,0 0,-5.78192 c -0.005,-0.7453 -0.0404,-1.50049 -0.10604,-2.26574 -0.0657,-0.76512 -0.13137,-1.49981 -0.19707,-2.20408 l 0.081,0 1.37523,2.8106 4.10674,7.44114 2.40378,0 0,-13.22166 -2.22171,0 0,5.7401 c 0.005,0.75016 0.0404,1.51762 0.10604,2.30227 0.0657,0.7846 0.13138,1.52112 0.19671,2.20939 l -0.0807,0 -1.37522,-2.81063 -4.10675,-7.44113 -2.40378,0 0,13.22166 z m 15.88467,0 2.34273,0 0,-11.24265 3.8015,0 0,-1.97901 -9.96643,0 0,1.97901 3.8222,0 0,11.24265 z m 8.31025,0 8.14673,0 0,-1.97914 -5.80365,0 0,-3.905 4.75187,0 0,-1.97915 -4.75187,0 0,-3.37936 5.60121,0 0,-1.97901 -7.94429,0 0,13.22166 z m 9.8711,-1.69603 c 0.63478,0.61964 1.36059,1.09689 2.17744,1.43133 0.81649,0.33443 1.67439,0.5036 2.573,0.50737 1.49875,-0.0294 2.66227,-0.41491 3.49054,-1.15658 0.82792,-0.74168 1.24813,-1.66298 1.26027,-2.76418 -0.0125,-0.94809 -0.26027,-1.70146 -0.74224,-2.26017 -0.48233,-0.55883 -1.12388,-0.99872 -1.92467,-1.31976 l -1.78043,-0.74837 c -0.56551,-0.20779 -1.05284,-0.44461 -1.46198,-0.71041 -0.40878,-0.26596 -0.62263,-0.64938 -0.64227,-1.15046 0.008,-0.48953 0.19493,-0.87041 0.56159,-1.14278 0.36665,-0.27209 0.86754,-0.4103 1.50231,-0.41462 0.56373,0.003 1.08033,0.10336 1.55016,0.30098 0.46984,0.19761 0.91039,0.47488 1.32167,0.83177 l 1.21171,-1.49621 c -0.52338,-0.52048 -1.13816,-0.92852 -1.84362,-1.22436 -0.70582,-0.29579 -1.4527,-0.44639 -2.23992,-0.45185 -1.30845,0.0234 -2.36736,0.38034 -3.17707,1.07066 -0.80936,0.69035 -1.22635,1.57289 -1.25027,2.6479 0.0292,0.96188 0.30953,1.72292 0.84113,2.28288 0.53124,0.56007 1.13994,0.9722 1.82577,1.23636 l 1.80079,0.78882 c 0.61692,0.23385 1.11281,0.48406 1.48732,0.75087 0.37415,0.26667 0.56623,0.66372 0.57658,1.19073 -0.004,0.52217 -0.2035,0.93428 -0.59943,1.23636 -0.39592,0.30209 -0.96501,0.45633 -1.70724,0.46261 -0.62478,-0.007 -1.23635,-0.1449 -1.83542,-0.41449 -0.59907,-0.26973 -1.13959,-0.63038 -1.62191,-1.08211 l -1.35381,1.59771 z m -60.58878,1.9387 2.14085,0 -0.009,-9.8437 2.30831,6.11499 1.07205,0 2.29018,-5.99267 0.006,9.72138 2.20164,0 0,-13.22166 -2.586,0 -2.3567,6.52304 -0.0809,0 -2.42089,-6.52304 -2.56561,0 0,13.22166" />
    <path
       inkscape:connector-curvature="0"
       id="path4152"
       style="fill:#009fe8;fill-opacity:1;fill-rule:evenodd;stroke:none"
       d="m 366.71321,537.37679 2.34319,0 0,-5.86396 5.34071,0 0,5.86396 2.3432,0 0,-13.22168 -2.3432,0 0,5.31794 -5.34071,0 0,-5.31794 -2.34319,0 0,13.22168 z m 13.28361,-5.80076 c 0.0176,2.1536 0.47222,3.70417 1.36391,4.65184 0.89171,0.94765 2.11502,1.41151 3.66986,1.39159 1.54423,0.0199 2.75823,-0.44394 3.64198,-1.39159 0.88376,-0.94767 1.33406,-2.49824 1.3512,-4.65184 l 0,-7.42092 -2.26216,0 0,7.60293 c -0.0126,1.41541 -0.2655,2.41134 -0.75866,2.98759 -0.49311,0.57628 -1.15051,0.85436 -1.97236,0.83416 -0.81135,0.0201 -1.45958,-0.25788 -1.94477,-0.83416 -0.48503,-0.57625 -0.73366,-1.57218 -0.74595,-2.98759 l 0,-7.60293 -2.34305,0 0,7.42092 z m 26.11698,5.80076 4.56836,0 c 1.4859,0.004 2.69582,-0.31172 3.62977,-0.94699 0.9336,-0.63526 1.41521,-1.61331 1.44484,-2.93402 -0.005,-0.8894 -0.26276,-1.59382 -0.77294,-2.11362 -0.51017,-0.51962 -1.24277,-0.85979 -2.19742,-1.02046 l 0,-0.0807 c 0.77472,-0.21801 1.3463,-0.59025 1.71438,-1.117 0.36844,-0.52662 0.55088,-1.11165 0.54802,-1.75487 -0.0268,-1.19702 -0.47304,-2.0426 -1.33845,-2.53688 -0.86575,-0.49409 -1.98964,-0.73315 -3.372,-0.71712 l -4.22456,0 0,13.22168 z m 2.34308,-7.74196 0,-3.66248 1.71975,0 c 0.85933,-0.004 1.50267,0.13081 1.92966,0.40473 0.42699,0.27405 0.64049,0.71238 0.64013,1.31529 0.006,0.62088 -0.19921,1.09898 -0.61728,1.43412 -0.41807,0.3351 -1.08925,0.50455 -2.01321,0.50834 l -1.65905,0 z m 0,5.92472 0,-4.24894 1.98286,0 c 0.98394,-10e-4 1.73153,0.16359 2.24277,0.49567 0.51125,0.33221 0.7683,0.84141 0.77152,1.52769 -0.005,0.74769 -0.26384,1.30583 -0.77901,1.67429 -0.51518,0.36831 -1.26026,0.55214 -2.23563,0.55129 l -1.98251,0 z m 9.68011,1.81724 8.14637,0 0,-1.97902 -5.80328,0 0,-3.90514 4.75187,0 0,-1.97916 -4.75187,0 0,-3.37936 5.60122,0 0,-1.979 -7.94431,0 0,13.22168 z m 13.12388,-11.34378 1.86147,0 c 0.91289,-0.01 1.60585,0.14127 2.0789,0.45286 0.47305,0.3114 0.71046,0.84166 0.71297,1.5907 -0.002,0.74951 -0.23992,1.31419 -0.71297,1.6945 -0.47305,0.3802 -1.16601,0.5707 -2.0789,0.57153 l -1.86147,0 0,-4.30959 z m 7.48196,11.34378 -3.15208,-5.51975 c 0.80863,-0.26959 1.44912,-0.71487 1.92181,-1.33592 0.47269,-0.62102 0.71403,-1.43594 0.72474,-2.44455 -0.031,-1.45503 -0.49911,-2.47756 -1.4045,-3.06777 -0.90504,-0.59024 -2.06105,-0.87486 -3.46769,-0.85369 l -4.44733,0 0,13.22168 2.34309,0 0,-5.17639 2.00285,0 2.85255,5.17639 2.62656,0 z m 4.59371,0 2.3431,0 0,-11.24268 3.80149,0 0,-1.979 -9.96644,0 0,1.979 3.82185,0 0,11.24268 z m 13.0207,0.24267 c 1.74723,-0.02 3.14745,-0.63641 4.20064,-1.84906 1.05355,-1.21275 1.59408,-2.9011 1.62192,-5.06506 -0.0278,-2.1501 -0.56837,-3.81574 -1.62192,-4.99687 -1.05319,-1.18098 -2.45341,-1.77968 -4.20064,-1.796 -1.75651,0.0163 -3.16279,0.61502 -4.21849,1.796 -1.05534,1.18113 -1.59657,2.84677 -1.62406,4.99687 0.0275,2.16396 0.56872,3.85231 1.62406,5.06506 1.0557,1.21265 2.46198,1.82896 4.21849,1.84906 z m 0,-2.03967 c -1.05462,-0.0173 -1.88825,-0.45814 -2.50054,-1.32229 -0.61227,-0.86426 -0.92502,-2.04831 -0.93823,-3.55216 0.0132,-1.49003 0.32596,-2.65134 0.93823,-3.48396 0.61229,-0.83259 1.44592,-1.25575 2.50054,-1.26913 1.04534,0.0134 1.87291,0.43654 2.48304,1.26913 0.61014,0.83262 0.92217,1.99393 0.93573,3.48396 -0.0135,1.50385 -0.32559,2.6879 -0.93573,3.55216 -0.61013,0.86415 -1.4377,1.30497 -2.48304,1.32229 z m -63.06175,1.81217 2.14084,0 -0.009,-9.84364 2.30817,6.11494 1.07202,0 2.29021,-5.99267 0.006,9.72137 2.20157,0 0,-13.22179 -2.58579,0 -2.35683,6.52317 -0.0809,0 -2.42087,-6.52317 -2.56562,0 0,13.22179" />
    <path
       inkscape:connector-curvature="0"
       id="path4154"
       style="fill:#009fe8;fill-opacity:1;fill-rule:nonzero;stroke:none"
       d="m 344.31987,506.5615 c 0.66421,0.56518 1.32622,1.49742 1.32622,2.96526 0,2.93677 -0.55946,4.05572 -0.55946,5.03464 0,0.97893 0.55946,1.5384 0.55946,1.5384 0,0 0,-0.37298 0,-0.76919 0,-0.86256 0.79262,-1.32868 0.79262,-1.32868 0,0 -0.11658,0.48957 -0.11658,0.93246 0,1.30523 1.7016,2.98345 1.7016,4.68511 0,3.03013 -3.54301,4.35858 -3.54301,4.35858 0,0 -3.8693,-1.63153 -3.8693,-5.36095 0,-3.72942 4.14892,-7.13253 4.14892,-10.16265 0,-1.37536 -0.24127,-1.49545 -0.44047,-1.89298" />
  </g>
</svg>
